# xmcd
#
# Track frame offsets:
#	150
#	14042
#	26942
#	40622
#	55492
#	66837
#	91412
#	109872
#	128180
#	138462
#	152105
#	168622
#	185297
#	197090
#
# Disc length: 2825 seconds
#
# Revision: 1
# Processed by: cddbd v1.5.2PL0 Copyright (c) Steve Scherf et al.
# Submitted via: audiograbber 1.83.01
#
DISCID=cb0b070e
DTITLE=Diversen - Truckers Jukebox CD-2
DYEAR=1997
DGENRE=Country
TTITLE0=Loretta Lynn - I lie
TTITLE1=John Anderson - It's hart to keep thisw ship together
TTITLE2=Marty Robbins - Twentieth Century drifter
TTITLE3=John Schneider - Take the long way home
TTITLE4=Red Steagall - Truck driving mann
TTITLE5=Ray Stevens - Southern air
TTITLE6=Boxcar Willie and Willie Nelson - Song of songs
TTITLE7=Lionel Cartwright - Leap of faith
TTITLE8=Billy "Crash" Craddock - Rub it in
TTITLE9=Patsy Cline - So wrong
TTITLE10=Mark Chesnutt - Too cold at home
TTITLE11=Don Williams - Love is on a roll
TTITLE12=Brenda Lee - Break it to me gently
TTITLE13=McBride and Ride - Sacred Ground
EXTD=
EXTT0=
EXTT1=
EXTT2=
EXTT3=
EXTT4=
EXTT5=
EXTT6=
EXTT7=
EXTT8=
EXTT9=
EXTT10=
EXTT11=
EXTT12=
EXTT13=
PLAYORDER=
